<?xml version="1.0" standalone="no"?>
<!DOCTYPE svg PUBLIC "-//W3C//DTD SVG 20010904//EN"
 "http://www.w3.org/TR/2001/REC-SVG-20010904/DTD/svg10.dtd">
<svg version="1.0" xmlns="http://www.w3.org/2000/svg"
 width="1000.000000pt" height="1000.000000pt" viewBox="0 0 1000.000000 1000.000000"
 preserveAspectRatio="xMidYMid meet">
<metadata>
Created by potrace 1.16, written by Peter Selinger 2001-2019
</metadata>
<g transform="translate(0.000000,1000.000000) scale(0.100000,-0.100000)"
fill="#eb4d68" stroke="none">
<path d="M4590 9869 c-897 -73 -1790 -412 -2515 -958 -356 -267 -709 -620
-976 -976 -546 -725 -874 -1583 -954 -2493 -19 -216 -19 -648 0 -864 80 -910
408 -1768 954 -2493 268 -356 620 -708 976 -976 733 -551 1623 -888 2534 -959
174 -13 608 -13 782 0 911 71 1801 408 2534 959 356 268 708 620 976 976 546
725 874 1583 954 2493 19 216 19 648 0 864 -80 910 -408 1768 -954 2493 -268
356 -620 708 -976 976 -734 552 -1621 887 -2539 959 -151 12 -644 11 -796 -1z
m-1983 -3899 c215 -27 451 -124 542 -223 l24 -26 -24 -28 c-13 -16 -93 -108
-178 -206 l-153 -177 -40 36 c-52 47 -148 92 -226 105 -215 38 -423 -121 -473
-359 -14 -70 -7 -210 15 -279 26 -82 92 -171 164 -220 87 -59 153 -77 266 -70
110 6 185 32 257 89 50 39 52 40 68 22 10 -11 80 -95 156 -189 76 -93 145
-178 153 -187 13 -16 13 -20 -4 -40 -32 -36 -148 -106 -229 -139 -166 -66
-209 -73 -445 -73 -200 0 -222 2 -312 26 -301 82 -514 256 -639 523 -99 212
-116 513 -42 749 128 408 499 664 978 675 33 0 97 -4 142 -9z m1383 -625 c86
-313 158 -576 161 -584 3 -8 45 127 94 300 49 173 123 436 165 584 l76 270
312 3 311 2 14 -47 c8 -27 83 -284 167 -573 84 -289 156 -528 159 -532 4 -4
78 253 166 572 l160 580 657 0 656 0 9 -27 c176 -514 398 -1150 402 -1155 4
-4 64 178 133 405 70 227 153 494 184 595 l57 182 329 0 c180 0 328 -2 328 -4
0 -14 -874 -2244 -900 -2296 -79 -157 -196 -292 -311 -358 -168 -96 -422 -124
-692 -77 -44 8 -81 16 -84 18 -4 5 54 486 62 514 3 8 16 7 52 -4 60 -19 214
-22 271 -5 81 24 136 99 212 290 26 66 31 89 24 111 -15 47 -749 1771 -754
1771 -3 0 -147 -410 -320 -910 l-315 -910 -314 2 -314 3 -181 571 -180 571
-143 -461 c-79 -253 -159 -512 -178 -573 l-36 -113 -312 0 -313 0 -317 918
c-174 505 -317 924 -317 930 0 9 80 12 332 10 l333 -3 155 -570z"/>
</g>
</svg>
