<svg width="28" height="28" viewBox="0 0 28 28" fill="none" xmlns="http://www.w3.org/2000/svg">
<path d="M14 28C21.732 28 28 21.732 28 14C28 6.26801 21.732 0 14 0C6.26801 0 0 6.26801 0 14C0 21.732 6.26801 28 14 28Z" fill="#0E122F"/>
<path d="M7.3297 13.8476C7.16023 12.5846 7.22028 11.3644 7.71323 10.187C8.57248 8.13551 10.0632 6.77559 12.2069 6.21901C15.4542 5.37523 18.7532 7.03187 20.0376 10.1501C20.524 11.3305 20.6013 12.5465 20.4372 13.7911C20.4105 13.9131 20.3406 14.0215 20.2404 14.0961C19.0654 14.9649 17.7619 15.1385 16.3592 14.8233C15.5267 14.6372 14.8792 14.1348 14.2138 13.6602C13.5971 13.2208 12.9615 12.8188 12.2122 12.6672C10.7352 12.3699 9.3241 12.5031 8.0498 13.3915C7.8393 13.5381 7.62741 13.6832 7.41413 13.8267C7.38695 13.8371 7.35859 13.8441 7.3297 13.8476Z" fill="#F2B705"/>
<path d="M17.3945 16.6804C16.46 16.6442 15.556 16.3381 14.7917 15.7991C14.2536 15.4144 13.7214 14.9952 13.1268 14.7181C11.5563 13.9849 9.99068 14.0372 8.48863 14.9524C8.19132 15.1308 7.91838 15.3448 7.62879 15.5333C7.39094 15.6856 7.18163 15.6523 7.0633 15.4513C6.93604 15.2318 7.00978 15.0552 7.20304 14.9119C8.10034 14.2489 9.03094 13.6668 10.1762 13.5294C11.5022 13.3701 12.7569 13.5431 13.8992 14.2751C14.3571 14.5682 14.8013 14.8822 15.2484 15.1914C16.6119 16.1339 18.5677 16.1541 19.9508 15.2372C20.0988 15.1391 20.2433 15.0344 20.3932 14.9399C20.596 14.8097 20.7969 14.8067 20.9355 15.0231C21.0663 15.2289 21.0068 15.4138 20.813 15.566C19.8699 16.3046 18.8031 16.6857 17.3945 16.6804Z" fill="#57C8C4"/>
<path d="M11.0242 19.4645C11.0242 18.2264 11.0242 16.9882 11.0242 15.7498C11.0242 15.641 10.995 15.5054 11.0474 15.4299C11.1336 15.3038 11.2709 15.1421 11.3952 15.1326C11.5195 15.123 11.6878 15.264 11.771 15.3841C11.8406 15.4846 11.8305 15.6511 11.8305 15.7884C11.8305 18.2351 11.8283 20.6821 11.824 23.1292C11.824 23.2856 11.8376 23.4693 11.7645 23.5906C11.6913 23.7119 11.5088 23.8386 11.3857 23.8285C11.2626 23.8184 11.136 23.653 11.0497 23.5311C11.0022 23.4634 11.0307 23.3391 11.0307 23.2404C11.0307 21.9821 11.0307 20.7239 11.0307 19.4656L11.0242 19.4645Z" fill="#57C8C4"/>
<path d="M16.7231 19.8016C16.7231 20.4348 16.7231 21.0681 16.7231 21.7044C16.7231 22.0445 16.5828 22.2152 16.3217 22.2128C16.0839 22.2128 15.9239 22.0308 15.9233 21.7222C15.9186 20.4458 15.9186 19.1689 15.9233 17.8916C15.9233 17.495 16.229 17.2672 16.5096 17.4587C16.6226 17.536 16.71 17.7299 16.7148 17.875C16.7356 18.5142 16.7231 19.1582 16.7231 19.8016Z" fill="#57C8C4"/>
<path d="M9.37582 17.5711C9.37582 17.0066 9.37582 16.4425 9.37582 15.8788C9.37265 15.7794 9.37762 15.68 9.39068 15.5815C9.42874 15.3519 9.56075 15.1831 9.7986 15.1866C10.0275 15.1902 10.1304 15.3739 10.175 15.5821C10.1851 15.6409 10.1889 15.7007 10.1863 15.7604C10.1863 16.9872 10.1899 18.2145 10.1863 19.4418C10.1863 19.7736 10.0329 19.977 9.80158 19.9817C9.5548 19.9859 9.38058 19.7754 9.3776 19.4406C9.37106 18.8175 9.3776 18.1919 9.3776 17.5705L9.37582 17.5711Z" fill="#57C8C4"/>
<path d="M17.5592 19.6232C17.5592 19.088 17.5592 18.5528 17.5592 18.0212C17.5592 17.7239 17.7269 17.5402 17.9689 17.5455C18.2002 17.5521 18.3548 17.7239 18.356 18.0141C18.3607 19.1213 18.3607 20.2289 18.356 21.3369C18.356 21.6015 18.2002 21.7531 17.9588 21.7573C17.7174 21.7615 17.5627 21.6069 17.5592 21.3411C17.5526 20.7678 17.5592 20.194 17.5592 19.6202V19.6232Z" fill="#57C8C4"/>
<path d="M13.455 17.6318C13.455 18.0575 13.4592 18.4833 13.455 18.909C13.4503 19.2373 13.2962 19.4323 13.0542 19.4359C12.8223 19.4395 12.6505 19.2379 12.6481 18.9108C12.6418 18.0387 12.6437 17.1666 12.654 16.2944C12.6582 15.9508 12.8188 15.7724 13.0643 15.7843C13.3099 15.7961 13.4503 15.9882 13.4544 16.3194C13.4586 16.76 13.455 17.1959 13.455 17.6318Z" fill="#57C8C4"/>
<path d="M8.54334 17.8696C8.54334 18.3156 8.54869 18.7616 8.54334 19.2075C8.53799 19.515 8.38279 19.6999 8.14732 19.707C7.91184 19.7142 7.75069 19.5417 7.74713 19.22C7.7388 18.3186 7.74039 17.4169 7.75188 16.515C7.75545 16.2106 7.90708 16.056 8.14791 16.0625C8.37387 16.0685 8.51956 16.2409 8.54156 16.5323C8.54156 16.562 8.54156 16.5917 8.54156 16.6215C8.54334 17.0377 8.54275 17.4534 8.54334 17.8696Z" fill="#57C8C4"/>
<path d="M20.0192 18.2942C20.0192 18.5214 20.0257 18.7485 20.0192 18.9751C20.009 19.2319 19.8241 19.4329 19.6106 19.4365C19.3972 19.4401 19.2188 19.2528 19.2146 18.9792C19.2087 18.5154 19.2146 18.0516 19.2146 17.5884C19.2146 17.3297 19.3437 17.1721 19.6071 17.1721C19.8705 17.1721 20.0001 17.3339 20.0108 17.5884C20.0209 17.8262 20.0108 18.0641 20.0108 18.2984L20.0192 18.2942Z" fill="#57C8C4"/>
<path d="M15.0706 17.542C15.0706 17.6698 15.0802 17.7983 15.0706 17.9255C15.0693 17.9728 15.0586 18.0194 15.0392 18.0626C15.0198 18.1058 14.992 18.1448 14.9576 18.1772C14.9231 18.2097 14.8826 18.2351 14.8383 18.2519C14.7941 18.2687 14.7469 18.2766 14.6996 18.2752C14.4808 18.2817 14.319 18.1509 14.3036 17.9184C14.2835 17.6438 14.2849 17.368 14.3077 17.0936C14.3268 16.8855 14.4677 16.7594 14.6895 16.7636C14.9113 16.7678 15.0463 16.8825 15.0689 17.0978C15.0779 17.2457 15.0785 17.394 15.0706 17.542Z" fill="#57C8C4"/>
</svg>
