<?xml version="1.0" standalone="no"?>
<!DOCTYPE svg PUBLIC "-//W3C//DTD SVG 20010904//EN"
 "http://www.w3.org/TR/2001/REC-SVG-20010904/DTD/svg10.dtd">
<svg version="1.0" xmlns="http://www.w3.org/2000/svg"
 width="250.000000pt" height="250.000000pt" viewBox="0 0 250.000000 250.000000"
 preserveAspectRatio="xMidYMid meet">
<metadata>
Created by potrace 1.16, written by Peter Selinger 2001-2019
</metadata>
<g transform="translate(0.000000,250.000000) scale(0.100000,-0.100000)"
fill="#6561f4" stroke="none">
<path d="M1000 2485 c-109 -25 -190 -54 -308 -112 -242 -118 -434 -307 -552
-543 -111 -222 -140 -343 -140 -584 0 -176 11 -250 56 -384 34 -103 102 -246
152 -319 55 -81 179 -215 266 -286 97 -80 335 -197 473 -232 99 -26 111 -27
330 -23 214 4 234 6 318 32 108 33 289 118 376 176 80 55 204 174 281 269 70
87 155 252 206 400 l37 106 3 235 c3 214 2 243 -18 319 -38 149 -136 363 -208
454 -71 89 -183 203 -254 258 -92 71 -304 176 -433 215 -84 25 -105 28 -305
30 -161 3 -231 0 -280 -11z m20 -776 c25 -11 75 -50 112 -87 l68 -66 -52 -53
-52 -52 -61 59 c-64 61 -98 77 -135 65 -12 -4 -62 -45 -110 -91 -51 -47 -98
-84 -109 -84 -34 0 -74 43 -74 79 0 27 13 46 84 117 107 109 148 132 239 133
25 0 65 -8 90 -20z m682 -12 c64 -37 178 -159 178 -190 0 -40 -11 -58 -44 -72
-43 -18 -69 -5 -149 73 -60 60 -71 67 -107 67 -39 0 -47 -7 -418 -377 -425
-424 -429 -428 -557 -428 -121 0 -219 62 -275 172 -53 108 -36 234 45 334 l37
45 -26 28 c-14 15 -26 30 -26 34 0 4 51 6 113 5 l112 -3 3 -99 c4 -127 0 -137
-37 -102 l-28 27 -31 -35 c-57 -66 -52 -158 12 -214 40 -35 82 -47 134 -37 32
5 88 57 407 374 369 367 403 398 460 419 49 19 148 8 197 -21z m418 -294 c0
-4 -12 -20 -27 -35 l-27 -28 47 -48 c66 -67 92 -129 92 -222 0 -90 -24 -149
-84 -209 -59 -59 -113 -83 -197 -89 -135 -9 -147 -1 -399 249 l-220 218 52 53
53 52 202 -201 c219 -217 244 -234 324 -218 53 10 109 67 118 122 9 51 -16
114 -63 157 l-31 30 -30 -29 -30 -29 0 117 0 117 110 0 c61 0 110 -3 110 -7z"/>
</g>
</svg>
