<svg xmlns="http://www.w3.org/2000/svg" width="25" height="25" viewBox="0 0 25 25"><g fill="none" fill-rule="evenodd"><path cx="16" cy="16" r="16" fill="#26A17B" d="M25 12.5A12.5 12.5 0 0 1 12.5 25A12.5 12.5 0 0 1 0 12.5A12.5 12.5 0 0 1 25 12.5z"/><path fill="#FFF" d="M14.002 13.58v-0.002c-0.086 0.006 -0.529 0.033 -1.517 0.033 -0.789 0 -1.345 -0.023 -1.54 -0.033v0.002c-3.038 -0.134 -5.305 -0.662 -5.305 -1.295 0 -0.632 2.267 -1.161 5.305 -1.297v2.066c0.198 0.014 0.767 0.048 1.553 0.048 0.943 0 1.416 -0.039 1.504 -0.047v-2.065c3.031 0.135 5.293 0.664 5.293 1.295 0 0.633 -2.262 1.16 -5.293 1.295m0 -2.805v-1.848h4.23V6.109H6.715v2.819h4.23v1.848c-3.438 0.158 -6.023 0.839 -6.023 1.655 0 0.816 2.585 1.496 6.023 1.655v5.923h3.057v-5.925c3.432 -0.158 6.011 -0.838 6.011 -1.653 0 -0.815 -2.579 -1.495 -6.011 -1.654"/></g></svg>