<?xml version="1.0" standalone="no"?>
<!DOCTYPE svg PUBLIC "-//W3C//DTD SVG 20010904//EN"
 "http://www.w3.org/TR/2001/REC-SVG-20010904/DTD/svg10.dtd">
<svg version="1.0" xmlns="http://www.w3.org/2000/svg"
 width="256.000000pt" height="256.000000pt" viewBox="0 0 256.000000 256.000000"
 preserveAspectRatio="xMidYMid meet">
<metadata>
Created by potrace 1.16, written by Peter Selinger 2001-2019
</metadata>
<g transform="translate(0.000000,256.000000) scale(0.100000,-0.100000)"
fill="#323232" stroke="none">
<path d="M1243 2177 c-18 -7 -188 -102 -378 -212 -262 -152 -351 -208 -366
-231 -18 -30 -19 -53 -19 -450 0 -384 2 -422 18 -453 15 -28 77 -68 377 -242
313 -181 366 -208 403 -209 38 0 81 22 365 186 177 102 341 198 365 213 73 45
72 38 72 501 0 455 0 456 -63 496 -97 62 -696 402 -717 407 -14 3 -39 0 -57
-6z m-223 -731 c0 -255 3 -336 13 -344 6 -5 127 -76 267 -157 140 -80 261
-152 268 -159 11 -10 -15 -29 -137 -99 -83 -48 -155 -87 -161 -87 -15 0 -563
320 -572 333 -4 7 -8 156 -8 333 0 299 1 322 18 337 21 19 293 177 304 177 5
0 8 -150 8 -334z"/>
</g>
</svg>
